<?xml version="1.0" standalone="no"?><!DOCTYPE svg PUBLIC "-//W3C//DTD SVG 1.1//EN" "http://www.w3.org/Graphics/SVG/1.1/DTD/svg11.dtd"><svg t="1578928961546" class="icon" viewBox="0 0 1024 1024" version="1.1" xmlns="http://www.w3.org/2000/svg" p-id="2288" xmlns:xlink="http://www.w3.org/1999/xlink" width="200" height="200"><defs><style type="text/css"></style></defs><path d="M557.25 512l265.38-265.38c12.5-12.5 12.5-32.75 0-45.25s-32.75-12.5-45.25 0L512 466.75 246.62 201.38c-12.5-12.5-32.75-12.5-45.25 0s-12.5 32.75 0 45.25L466.75 512 201.38 777.38c-12.5 12.5-12.5 32.75 0 45.25 6.25 6.25 14.44 9.38 22.62 9.38s16.38-3.12 22.62-9.38L512 557.25l265.38 265.38c6.25 6.25 14.44 9.38 22.62 9.38s16.38-3.12 22.62-9.38c12.5-12.5 12.5-32.75 0-45.25L557.25 512z" p-id="2289"></path></svg>