<?xml version="1.0" standalone="no"?><!DOCTYPE svg PUBLIC "-//W3C//DTD SVG 1.1//EN" "http://www.w3.org/Graphics/SVG/1.1/DTD/svg11.dtd"><svg t="1578928980048" class="icon" viewBox="0 0 1024 1024" version="1.1" xmlns="http://www.w3.org/2000/svg" p-id="2781" xmlns:xlink="http://www.w3.org/1999/xlink" width="200" height="200"><defs><style type="text/css"></style></defs><path d="M840.88 330H631.67c-11.17 0-19.3-10.6-16.41-21.38l23.16-86.43c14.45-53.93-17.55-109.36-71.48-123.81A98.616 98.616 0 0 0 541.36 95c-43.88 0-84.3 29.38-96.17 73.66l-19.8 73.88C411.57 294.12 364.82 330 311.41 330H150c-17.67 0-32 14.33-32 32v448c0 17.67 14.33 32 32 32h618.88c30.8 0 57.23-21.94 62.9-52.21l72-384c7.39-39.38-22.82-75.79-62.9-75.79zM182 394h93.63L248.2 778H182V394z m586.88 384H312.37l27.6-386.39c69.97-11.15 128.47-62.44 147.25-132.51l19.8-73.88c4.07-15.2 18.52-26.22 34.35-26.22 3.01 0 6.04 0.4 9.01 1.2 19.76 5.29 31.52 25.68 26.23 45.43l-23.16 86.43c-6.57 24.52-1.47 50.13 13.98 70.26 15.45 20.14 38.87 31.69 64.25 31.69h209.21L768.88 778z" p-id="2782"></path></svg>