<?xml version="1.0" standalone="no"?>
<!DOCTYPE svg PUBLIC "-//W3C//DTD SVG 1.1//EN" "http://www.w3.org/Graphics/SVG/1.1/DTD/svg11.dtd">
<svg t="1578892190877" class="icon" viewBox="0 0 1024 1024" version="1.1" xmlns="http://www.w3.org/2000/svg" p-id="1376" xmlns:xlink="http://www.w3.org/1999/xlink" width="200" height="200">
    <defs>
    <style type="text/css"></style>
    </defs>
    <path d="M511.788176 220.014926c-161.587212 0-292.579615 130.992403-292.579615 292.579615s130.992403 292.579615 292.579615 292.579615c161.587212 0 292.579615-130.992403 292.579615-292.579615S673.376411 220.014926 511.788176 220.014926zM511.788176 240.193501c40.606837 0 79.129198 8.898671 113.746624 24.830525-4.966105 3.475148-9.327436 7.268544-13.392008 13.811564-27.576055-9.270131-42.766013-17.108656-69.957305-20.949124-27.191292-3.840468-49.565882-0.569982-62.513776 1.302669-3.454682-5.125741-7.421017-10.749832-10.920724-15.600303C482.771305 241.364163 497.142617 240.193501 511.788176 240.193501zM329.200674 357.361037l93.298919-40.123836 50.065256 91.715865-54.616922 68.783573-114.916263-20.638039L329.200674 357.361037zM294.582225 676.983565c-25.64917-33.836643-43.572378-73.846892-51.145867-117.415177 7.013741 2.200108 16.626679 3.131317 22.563902 5.616928 9.251711 32.374338 19.954471 63.594387 40.927131 92.356454C302.156738 665.011906 298.552653 669.11434 294.582225 676.983565zM474.836589 760.89672l-77.370135-74.515111 59.165518-89.418542 88.750323 19.485797 28.444842 114.139573L474.836589 760.89672zM674.036443 731.415268c-1.176802-7.448646-3.980661-14.724353-6.706749-20.183691 30.354332-22.152533 52.088332-50.255591 66.908876-79.932494 7.965415 0.089028 15.815197 0.115634 22.695908 0.186242C737.676879 671.118997 709.094914 705.378266 674.036443 731.415268zM738.808656 549.95852l-112.6435-5.731538-28.444842-91.712795 73.957409-82.540901 78.507028 67.638493L738.808656 549.95852zM511.788176 66.025763c-246.632143 0-446.568778 199.936635-446.568778 446.568778s199.936635 446.568778 446.568778 446.568778 446.568778-199.936635 446.568778-446.568778S758.420319 66.025763 511.788176 66.025763zM511.788176 928.365896c-229.622748 0-415.771355-186.148607-415.771355-415.771355s186.148607-415.771355 415.771355-415.771355 415.771355 186.148607 415.771355 415.771355S741.410923 928.365896 511.788176 928.365896z" p-id="1377">
    </path>
</svg>