<?xml version="1.0" standalone="no"?><!DOCTYPE svg PUBLIC "-//W3C//DTD SVG 1.1//EN" "http://www.w3.org/Graphics/SVG/1.1/DTD/svg11.dtd"><svg t="1578928984554" class="icon" viewBox="0 0 1024 1024" version="1.1" xmlns="http://www.w3.org/2000/svg" p-id="2904" xmlns:xlink="http://www.w3.org/1999/xlink" width="200" height="200"><defs><style type="text/css"></style></defs><path d="M696.37 223.76c49.05 0 95.16 19.1 129.84 53.78 71.59 71.59 71.59 188.08 0.8 258.89l-10.39 10.05L512 851.4 207.11 546.8l-9.5-9.5c-71.39-71.64-71.39-188.2-0.08-259.75 34.68-34.68 80.79-53.78 129.84-53.78 49.04 0 95.15 19.1 129.84 53.78l9.57 9.57 46.06 46.06 45.24-46.86 8.45-8.77c34.69-34.69 80.8-53.79 129.84-53.79m0-64c-63.37 0-126.74 24.18-175.09 72.53l-9.24 9.57-9.57-9.57c-48.35-48.35-111.72-72.53-175.09-72.53s-126.74 24.18-175.09 72.53c-96.38 96.71-96.38 253.48 0 350.19l9.57 9.57 326.83 326.53c6.44 6.44 14.89 9.66 23.33 9.66 8.45 0 16.9-3.23 23.35-9.68L861.9 591.72l9.57-9.24c96.7-96.71 96.7-253.48 0-350.19-48.35-48.35-111.73-72.53-175.1-72.53z" p-id="2905"></path></svg>