<?xml version="1.0" standalone="no"?><!DOCTYPE svg PUBLIC "-//W3C//DTD SVG 1.1//EN" "http://www.w3.org/Graphics/SVG/1.1/DTD/svg11.dtd"><svg t="1578928969532" class="icon" viewBox="0 0 1024 1024" version="1.1" xmlns="http://www.w3.org/2000/svg" p-id="2534" xmlns:xlink="http://www.w3.org/1999/xlink" width="200" height="200"><defs><style type="text/css"></style></defs><path d="M864 192H160c-17.67 0-32 14.33-32 32v512c0 17.67 14.33 32 32 32h224l105.37 105.37c6.25 6.25 14.44 9.37 22.63 9.37s16.38-3.12 22.63-9.37L640 768h224c17.67 0 32-14.33 32-32V224c0-17.67-14.33-32-32-32z m-32 512H613.49l-18.74 18.74L512 805.49l-82.74-82.75L410.51 704H192V256h640v448z" p-id="2535"></path><path d="M320 448h384c17.67 0 32-14.33 32-32s-14.33-32-32-32H320c-17.67 0-32 14.33-32 32s14.33 32 32 32zM320 576h224c17.67 0 32-14.33 32-32s-14.33-32-32-32H320c-17.67 0-32 14.33-32 32s14.33 32 32 32z" p-id="2536"></path></svg>