<?xml version="1.0" standalone="no"?><!DOCTYPE svg PUBLIC "-//W3C//DTD SVG 1.1//EN" "http://www.w3.org/Graphics/SVG/1.1/DTD/svg11.dtd"><svg t="1578928973473" class="icon" viewBox="0 0 1024 1024" version="1.1" xmlns="http://www.w3.org/2000/svg" p-id="2658" xmlns:xlink="http://www.w3.org/1999/xlink" width="200" height="200"><defs><style type="text/css"></style></defs><path d="M887.3 842.05L750.38 705.13C865.55 566.98 858.5 360.7 728.9 231.09c-137.25-137.25-360.56-137.25-497.81 0-137.23 137.25-137.23 360.56 0 497.81C299.72 797.53 389.86 831.83 480 831.83c80.11 0 160.13-27.24 225.13-81.44L842.05 887.3c6.25 6.25 14.44 9.38 22.62 9.38s16.38-3.12 22.62-9.38c12.51-12.5 12.51-32.75 0.01-45.25zM276.34 683.66c-112.28-112.3-112.28-295.02 0-407.31 56.16-56.14 129.91-84.2 203.66-84.2s147.5 28.06 203.66 84.2c112.28 112.3 112.28 295.02 0 407.31-112.32 112.25-295.04 112.25-407.32 0z" p-id="2659"></path></svg>