<?xml version="1.0" standalone="no"?><!DOCTYPE svg PUBLIC "-//W3C//DTD SVG 1.1//EN" "http://www.w3.org/Graphics/SVG/1.1/DTD/svg11.dtd"><svg t="1578928994235" class="icon" viewBox="0 0 1024 1024" version="1.1" xmlns="http://www.w3.org/2000/svg" p-id="3151" xmlns:xlink="http://www.w3.org/1999/xlink" width="200" height="200"><defs><style type="text/css"></style></defs><path d="M544.32 107.91h0.16-0.16M512 173.39l83.56 169.3 14.89 30.17 33.3 4.84 186.84 27.15-135.2 131.78-24.09 23.49 5.69 33.16 31.92 186.08L541.8 691.5 512 675.85l-29.78 15.66-167.11 87.85 31.92-186.08 5.69-33.16-24.09-23.49-135.2-131.78 186.84-27.15 33.3-4.84 14.89-30.17L512 173.39M512 64c-9.97 0-19.95 5.2-25.07 15.59L371.05 314.37l-259.1 37.65c-22.93 3.33-32.09 31.52-15.5 47.69l187.49 182.75-44.26 258.05c-3.1 18.07 11.26 32.75 27.55 32.75 4.3 0 8.73-1.02 13.02-3.27L512 748.16 743.75 870c4.28 2.25 8.72 3.27 13.02 3.27 16.29 0 30.65-14.68 27.55-32.75l-44.26-258.05 187.49-182.75c16.6-16.18 7.44-44.36-15.5-47.69l-259.1-37.65L537.07 79.59C531.95 69.2 521.97 64 512 64z" p-id="3152"></path></svg>