<?xml version="1.0" standalone="no"?><!DOCTYPE svg PUBLIC "-//W3C//DTD SVG 1.1//EN" "http://www.w3.org/Graphics/SVG/1.1/DTD/svg11.dtd"><svg t="1578928988238" class="icon" viewBox="0 0 1024 1024" version="1.1" xmlns="http://www.w3.org/2000/svg" p-id="3027" xmlns:xlink="http://www.w3.org/1999/xlink" width="200" height="200"><defs><style type="text/css"></style></defs><path d="M512 128c25.39 0 50.53 2.49 74.98 7.41l21.26 79.01 7.44 27.64 25.56 12.88c10.89 5.49 20.28 10.86 28.72 16.41l23.96 15.77 27.72-7.4 78.75-21.01c33.38 37.85 59.06 82.22 75.24 130.03l-57.9 57.9-20.28 20.28 1.64 28.63 0.41 6.37c0.23 3.34 0.5 6.68 0.5 10.08s-0.28 6.74-0.5 10.08l-0.41 6.37-1.64 28.63 20.28 20.28 57.9 57.9c-16.18 47.8-41.86 92.18-75.24 130.03l-78.75-21.01-27.72-7.4-23.96 15.77c-8.44 5.55-17.84 10.92-28.72 16.4l-25.57 12.88-7.44 27.64-21.25 79.01C562.53 893.51 537.39 896 512 896s-50.53-2.49-74.98-7.41l-21.25-79-7.44-27.65-25.57-12.88c-10.88-5.48-20.28-10.85-28.72-16.4l-23.96-15.77-27.72 7.4-78.75 21.01c-33.38-37.84-59.06-82.22-75.24-130.03l57.9-57.9 20.28-20.28-1.64-28.63-0.41-6.37c-0.23-3.34-0.5-6.68-0.5-10.08s0.28-6.74 0.5-10.08l0.41-6.37 1.64-28.63-20.28-20.28-57.9-57.9c16.18-47.81 41.86-92.19 75.24-130.03l78.75 21.01 27.72 7.4 23.96-15.77c8.44-5.55 17.83-10.92 28.72-16.41l25.56-12.88 7.44-27.64 21.26-79.01c24.45-4.93 49.59-7.42 74.98-7.42m0-64c-37.69 0-74.21 4.66-109.17 13.59-11.13 2.84-19.71 11.82-22.69 22.91l-26.18 97.29c-12.09 6.09-23.86 12.7-35.1 20.1l-97.13-25.92c-2.8-0.75-5.67-1.12-8.51-1.12-8.38 0-16.6 3.2-22.57 9.32-50.8 52.09-88.97 116.89-109.46 189.17-3.14 11.06 0.31 23.04 8.44 31.17l71.39 71.39c-0.38 6.69-1.02 13.32-1.02 20.1s0.63 13.41 1.02 20.1l-71.39 71.39c-8.13 8.13-11.58 20.11-8.44 31.17a444.755 444.755 0 0 0 109.46 189.17c5.97 6.12 14.18 9.32 22.57 9.32 2.84 0 5.71-0.37 8.51-1.12l97.13-25.92c11.24 7.4 23.01 14 35.1 20.1l26.17 97.29c2.98 11.09 11.56 20.07 22.69 22.91C437.79 955.34 474.31 960 512 960s74.21-4.66 109.17-13.59c11.13-2.84 19.71-11.82 22.69-22.91l26.17-97.29c12.09-6.09 23.86-12.7 35.1-20.1l97.13 25.92c2.8 0.75 5.67 1.12 8.51 1.12 8.38 0 16.6-3.2 22.57-9.32A444.755 444.755 0 0 0 942.8 634.66c3.13-11.06-0.32-23.04-8.45-31.17l-71.39-71.39c0.38-6.69 1.02-13.32 1.02-20.1s-0.63-13.41-1.02-20.1l71.39-71.39c8.13-8.13 11.58-20.11 8.44-31.17a444.755 444.755 0 0 0-109.46-189.17c-5.97-6.12-14.18-9.32-22.57-9.32-2.85 0-5.71 0.37-8.51 1.12l-97.13 25.92c-11.24-7.4-23.01-14-35.1-20.1l-26.18-97.3c-2.98-11.09-11.56-20.07-22.69-22.91C586.21 68.66 549.69 64 512 64z" p-id="3028"></path><path d="M512 416c52.94 0 96 43.07 96 96s-43.06 96-96 96-96-43.07-96-96 43.06-96 96-96m0-64c-88.37 0-160 71.63-160 160s71.63 160 160 160 160-71.63 160-160-71.63-160-160-160z" p-id="3029"></path></svg>